<?xml version="1.0" standalone="no"?><!DOCTYPE svg PUBLIC "-//W3C//DTD SVG 1.1//EN" "http://www.w3.org/Graphics/SVG/1.1/DTD/svg11.dtd"><svg t="1773998286945" class="icon" viewBox="0 0 1064 1024" version="1.1" xmlns="http://www.w3.org/2000/svg" p-id="6056" xmlns:xlink="http://www.w3.org/1999/xlink" width="207.8125" height="200"><path d="M760.581657 551.793365s213.624395-139.470818-402.710046-450.41432c0 0 804.524518 104.483704 402.710046 450.41432z" fill="#94005C" p-id="6057" data-spm-anchor-id="a313x.search_index.0.i0.3a0f3a8172eK9J" class="selected"></path><path d="M739.983441 544.628768s-90.094805-226.878899-446.414086-330.049093c-0.179115 0 542.718209 93.259169 446.414086 330.049093z" fill="#94005C" p-id="6058"></path><path d="M1053.912192 202.63868l-48.599849 25.494024c-22.32966 3.224069-62.988747 7.164597-62.988747 7.164596-47.047519 23.16553-33.49449 24.717859-42.271121 166.636581-7.224302 117.618798-124.60428 172.786193-164.546907 188.249782a97.080287 97.080287 0 0 1-22.628185 4.656988c-87.467786 11.940995-183.533088 68.660719-237.088449 104.662818 70.093639-36.240919 190.697685-65.675471 190.697685-65.675471-25.494024 13.553029-82.154043 113.976794-82.154044 113.976795 63.824617-102.0358 197.026412-146.69512 197.026413-146.69512 224.789225-80.482304 210.460031-302.943035 210.460031-302.943035-1.671739-13.433619 62.093172-95.527958 62.093173-95.527958z m-87.646901 75.705906a13.553029 13.553029 0 1 1 13.553029-13.553029 13.493324 13.493324 0 0 1-13.553029 13.553029zM433.696927 729.594776s16.060638-12.597749 42.092007-29.852487c-18.687657 9.433386-33.85272 19.583231-42.092007 29.852487z" fill="#94005C" p-id="6059"></path></svg>